<?xml version="1.0" standalone="no"?>
<!DOCTYPE svg PUBLIC "-//W3C//DTD SVG 20010904//EN"
 "http://www.w3.org/TR/2001/REC-SVG-20010904/DTD/svg10.dtd">
<svg version="1.0" xmlns="http://www.w3.org/2000/svg"
 width="700.000000pt" height="700.000000pt" viewBox="0 0 700.000000 700.000000"
 preserveAspectRatio="xMidYMid meet">
<metadata>
Created by potrace 1.14, written by Peter Selinger 2001-2017
</metadata>
<g transform="translate(0.000000,700.000000) scale(0.100000,-0.100000)"
fill="#000000" stroke="none">
<path d="M2026 6981 c-57 -38 -55 -16 -56 -685 l0 -620 23 -33 c12 -18 34 -37
49 -42 14 -5 152 -10 307 -10 155 -1 291 -5 303 -10 28 -11 53 -39 63 -69 5
-18 8 -139 5 -244 0 -16 -14 -18 -162 -17 -228 1 -326 -20 -462 -99 -93 -53
-213 -181 -263 -277 -65 -128 -83 -217 -83 -422 l0 -173 -122 0 c-137 0 -183
14 -206 61 -9 20 -12 106 -13 317 -1 268 -2 292 -20 321 -11 18 -32 38 -48 44
-21 9 -186 12 -644 12 -608 0 -616 -1 -644 -21 -15 -12 -34 -32 -40 -45 -10
-19 -13 -341 -13 -1462 0 -1604 -5 -1492 68 -1522 53 -23 1229 -22 1276 0 62
30 66 52 66 376 l0 291 34 34 c19 19 45 34 57 35 13 0 75 1 137 2 l112 2 1
-170 c0 -93 2 -177 4 -185 1 -8 5 -32 9 -52 7 -46 46 -150 76 -203 81 -145
231 -272 386 -324 95 -32 108 -33 304 -38 102 -3 186 -6 188 -8 8 -8 2 -243
-7 -266 -5 -15 -23 -36 -39 -48 -29 -20 -41 -21 -309 -21 -160 0 -294 -4 -315
-10 -23 -7 -46 -23 -59 -42 l-22 -31 -1 -624 c0 -611 1 -624 21 -651 11 -15
31 -33 44 -39 19 -10 342 -13 1467 -13 1585 0 1484 -4 1517 60 13 25 15 113
15 640 0 546 -2 616 -16 646 -29 60 -50 64 -373 64 l-287 0 -34 28 c-32 27
-34 32 -39 113 -3 47 -4 110 -3 142 l4 57 151 1 c186 1 209 3 285 23 242 62
437 253 506 496 23 81 24 99 25 285 l1 170 112 -2 c62 -1 124 -2 137 -2 13 -1
38 -16 57 -37 l34 -35 0 -290 c0 -320 4 -345 59 -373 26 -14 106 -16 645 -16
375 0 625 4 640 10 14 5 35 24 46 42 20 33 20 51 20 1476 0 1587 4 1484 -60
1517 -27 14 -108 16 -645 15 -337 0 -622 -3 -632 -7 -27 -11 -50 -35 -62 -66
-7 -18 -11 -134 -11 -307 0 -157 -4 -290 -10 -304 -19 -51 -58 -64 -201 -65
l-129 -1 0 165 c0 206 -15 287 -77 413 -74 150 -205 275 -358 339 -97 41 -180
54 -362 54 l-173 1 -1 27 c-3 129 3 225 15 250 32 60 39 62 349 62 305 1 336
5 371 52 20 27 20 39 20 639 1 382 -3 623 -9 642 -5 17 -25 41 -44 53 l-34 23
-1446 0 c-1412 0 -1447 -1 -1475 -19z m1880 -1425 c22 -22 34 -44 35 -62 1
-54 1 -219 0 -231 -1 -17 -881 -18 -882 0 -1 14 -1 200 0 236 1 12 16 38 35
57 l34 34 372 0 372 0 34 -34z m-2156 -2053 l0 -442 -92 -3 c-162 -5 -217 11
-240 72 -5 14 -9 178 -9 378 0 316 2 356 18 382 26 44 66 55 202 55 l121 0 0
-442z m3787 422 c17 -10 36 -29 42 -42 7 -16 11 -145 11 -379 0 -383 -1 -393
-54 -427 -23 -15 -102 -21 -248 -18 l-38 1 0 438 c0 241 2 441 5 443 2 3 59 4
127 4 102 -1 129 -4 155 -20z m-1593 -2273 c-1 -53 -2 -114 -3 -136 -1 -29 -9
-46 -35 -72 l-34 -34 -372 0 -372 0 -34 34 c-22 22 -34 44 -35 63 -3 84 -4
229 -1 236 2 4 202 7 445 7 l442 0 -1 -98z"/>
</g>
</svg>
